<svg width="60" height="60" viewBox="0 0 60 60" fill="none" xmlns="http://www.w3.org/2000/svg">
<circle cx="30" cy="30" r="30" fill="#327CC6"/>
<g clip-path="url(#clip0_187_8)">
<path d="M37.3 41.3H22.8C21.6 41.3 20.7 40.3 20.7 39.2V30.1C20.7 28.9 21.7 28 22.8 28H37.3C38.5 28 39.4 29 39.4 30.1V39.2C39.4 40.4 38.5 41.3 37.3 41.3Z" stroke="white" stroke-width="3" stroke-miterlimit="10" stroke-linecap="round" stroke-linejoin="round"/>
<path d="M37.3 24.4H22.8C21.6 24.4 20.7 23.4 20.7 22.3V20.5C20.7 15.3 24.9 11.1 30.1 11.1C35.3 11.1 39.5 15.3 39.5 20.5V22.3C39.4 23.4 38.5 24.4 37.3 24.4Z" stroke="white" stroke-width="3" stroke-miterlimit="10" stroke-linecap="round" stroke-linejoin="round"/>
<path d="M13.9 37.8C12.6 37.8 11.5 36.7 11.5 35.4V30.3C11.5 29 12.6 28 13.9 28C15.2 28 16.3 29.1 16.3 30.4V35.5C16.3 36.7 15.2 37.8 13.9 37.8Z" stroke="white" stroke-width="3" stroke-miterlimit="10" stroke-linecap="round" stroke-linejoin="round"/>
<path d="M46.2 37.8C44.9 37.8 43.8 36.7 43.8 35.4V30.3C43.8 29 44.9 27.9 46.2 27.9C47.5 27.9 48.6 29 48.6 30.3V35.4C48.6 36.7 47.5 37.8 46.2 37.8Z" stroke="white" stroke-width="3" stroke-miterlimit="10" stroke-linecap="round" stroke-linejoin="round"/>
<path d="M25.3 49.8C24 49.8 22.9 48.7001 22.9 47.4001V41.3H27.7V47.4001C27.7 48.8001 26.6 49.8 25.3 49.8Z" stroke="white" stroke-width="3" stroke-miterlimit="10" stroke-linecap="round" stroke-linejoin="round"/>
<path d="M34.8 49.8C33.5 49.8 32.4 48.7001 32.4 47.4001V41.3H37.2V47.4001C37.2 48.8001 36.1 49.8 34.8 49.8Z" stroke="white" stroke-width="3" stroke-miterlimit="10" stroke-linecap="round" stroke-linejoin="round"/>
<path d="M26.5 17.2V19.6" stroke="white" stroke-width="3" stroke-miterlimit="10" stroke-linecap="round" stroke-linejoin="round"/>
<path d="M33.6 17.2V19.6" stroke="white" stroke-width="3" stroke-miterlimit="10" stroke-linecap="round" stroke-linejoin="round"/>
<path d="M25.9 12L24.5 9.5" stroke="white" stroke-width="3" stroke-miterlimit="10" stroke-linecap="round" stroke-linejoin="round"/>
<path d="M34.2 12L35.6 9.5" stroke="white" stroke-width="3" stroke-miterlimit="10" stroke-linecap="round" stroke-linejoin="round"/>
</g>
<defs>
<clipPath id="clip0_187_8">
<rect width="40.1" height="43.3" fill="white" transform="translate(10 8)"/>
</clipPath>
</defs>
</svg>
