<svg width="60" height="60" viewBox="0 0 60 60" fill="none" xmlns="http://www.w3.org/2000/svg">
<circle cx="30" cy="30" r="30" fill="#327CC6"/>
<g clip-path="url(#clip0_187_5)">
<path d="M29.9 29.8C32.6062 29.8 34.8 27.6062 34.8 24.9C34.8 22.1938 32.6062 20 29.9 20C27.1938 20 25 22.1938 25 24.9C25 27.6062 27.1938 29.8 29.9 29.8Z" stroke="white" stroke-width="3" stroke-miterlimit="10" stroke-linecap="round" stroke-linejoin="round"/>
<path d="M40.1 29.8C40.8 28.3 41.2 26.7 41.2 24.9C41.2 18.6 36.1 13.5 29.8 13.5C23.5 13.5 18.5 18.6 18.5 24.9C18.5 26.6 18.9 28.3 19.6 29.8C19.6 29.8 20.3 31.2 20.8 31.8L29.9 46.7L39 31.7C39.4 31.1 40.1 29.8 40.1 29.8Z" stroke="white" stroke-width="3" stroke-miterlimit="10" stroke-linecap="round" stroke-linejoin="round"/>
</g>
<defs>
<clipPath id="clip0_187_5">
<rect width="25.8" height="36.1" fill="white" transform="translate(17 12)"/>
</clipPath>
</defs>
</svg>
