<svg width="67" height="76" viewBox="0 0 67 76" fill="none" xmlns="http://www.w3.org/2000/svg">
<g clip-path="url(#clip0_11_310)">
<path d="M15.7 72.2H2.5V33.5H15.7C18.3 33.5 20.5 35.6 20.5 38.3V67.5C20.5 70.1 18.3 72.2 15.7 72.2Z" stroke="#FBB03B" stroke-width="5" stroke-miterlimit="10" stroke-linecap="round" stroke-linejoin="round"/>
<path d="M59.4 46.2C61.9 46.2 63.9 44.2 63.9 41.7C63.9 39.2 61.9 37.2 59.4 37.2H39" stroke="#FBB03B" stroke-width="5" stroke-miterlimit="10" stroke-linecap="round" stroke-linejoin="round"/>
<path d="M59.4001 55.2C61.9001 55.2 63.9001 53.2 63.9001 50.7C63.9001 48.2 61.9001 46.2 59.4001 46.2H53.8" stroke="#FBB03B" stroke-width="5" stroke-miterlimit="10" stroke-linecap="round" stroke-linejoin="round"/>
<path d="M53.8 55.2H59.4C61.9 55.2 63.9 57.2 63.9 59.7C63.9 62.2 61.9 64.1999 59.4 64.1999H53.4" stroke="#FBB03B" stroke-width="5" stroke-miterlimit="10" stroke-linecap="round" stroke-linejoin="round"/>
<path d="M54.9 64.2C57.4 64.2 59.4 66.2 59.4 68.7C59.4 71.2 57.4 73.2 54.9 73.2H35.7999C35.7999 73.2 26.7 73.2 20.2 69.1" stroke="#FBB03B" stroke-width="5" stroke-miterlimit="10" stroke-linecap="round" stroke-linejoin="round"/>
<path d="M20.5 38.2001L31.2 32.5C31.2 32.5 36.5 29.9 37.4 25.6C38.3 21.3 39.8 15.8 39.8 15.8C39.8 15.8 45.4 16.2 47.5 21.6C49.5 27.1 45.7 33.9001 45.7 33.9001L44.3 37" stroke="#FBB03B" stroke-width="5" stroke-miterlimit="10" stroke-linecap="round" stroke-linejoin="round"/>
<path d="M41.5 2.5V8" stroke="#FBB03B" stroke-width="5" stroke-miterlimit="10" stroke-linecap="round" stroke-linejoin="round"/>
<path d="M28.5 8L32.3 11.8" stroke="#FBB03B" stroke-width="5" stroke-miterlimit="10" stroke-linecap="round" stroke-linejoin="round"/>
<path d="M54.5999 8L50.7 11.8" stroke="#FBB03B" stroke-width="5" stroke-miterlimit="10" stroke-linecap="round" stroke-linejoin="round"/>
</g>
<defs>
<clipPath id="clip0_11_310">
<rect width="66.4" height="75.8" fill="white"/>
</clipPath>
</defs>
</svg>
