<svg width="61" height="61" viewBox="0 0 61 61" fill="none" xmlns="http://www.w3.org/2000/svg">
<g clip-path="url(#clip0_11_283)">
<path d="M23.7 2.5C12 2.5 2.5 12 2.5 23.7C2.5 26.6 3.1 29.3 4.1 31.8C6 37 4.1 41.8 2.5 44C5.6 45.5 10.5 46.3 14.4 42.7C17.2 44.1 20.3 44.8 23.7 44.8C35.4 44.8 44.9 35.3 44.9 23.6C44.8 12 35.3 2.5 23.7 2.5Z" stroke="#FBB03B" stroke-width="5" stroke-miterlimit="10" stroke-linecap="round" stroke-linejoin="round"/>
<path d="M23.8 52.7999C27.5 55.7999 32.1 57.5999 37.3 57.5999C40.6 57.5999 43.8 56.7999 46.6 55.4999C50.5 58.9999 55.4 58.1999 58.5 56.7999C56.9 54.5999 55 49.7999 56.9 44.5999C57.9 42.0999 58.5 39.3999 58.5 36.4999C58.5 31.5999 56.8 26.9999 54 23.3999" stroke="#FBB03B" stroke-width="5" stroke-miterlimit="10" stroke-linecap="round" stroke-linejoin="round"/>
<path d="M13.4 25.2C14.2285 25.2 14.9 24.5284 14.9 23.7C14.9 22.8715 14.2285 22.2 13.4 22.2C12.5716 22.2 11.9 22.8715 11.9 23.7C11.9 24.5284 12.5716 25.2 13.4 25.2Z" stroke="#FBB03B" stroke-width="5" stroke-miterlimit="10" stroke-linecap="round" stroke-linejoin="round"/>
<path d="M23.7 25.2C24.5284 25.2 25.2 24.5284 25.2 23.7C25.2 22.8715 24.5284 22.2 23.7 22.2C22.8716 22.2 22.2 22.8715 22.2 23.7C22.2 24.5284 22.8716 25.2 23.7 25.2Z" stroke="#FBB03B" stroke-width="5" stroke-miterlimit="10" stroke-linecap="round" stroke-linejoin="round"/>
<path d="M33.9 25.2C34.7285 25.2 35.4 24.5284 35.4 23.7C35.4 22.8715 34.7285 22.2 33.9 22.2C33.0716 22.2 32.4 22.8715 32.4 23.7C32.4 24.5284 33.0716 25.2 33.9 25.2Z" stroke="#FBB03B" stroke-width="5" stroke-miterlimit="10" stroke-linecap="round" stroke-linejoin="round"/>
</g>
<defs>
<clipPath id="clip0_11_283">
<rect width="60.9" height="60.6" fill="white"/>
</clipPath>
</defs>
</svg>
