<svg width="60" height="60" viewBox="0 0 60 60" fill="none" xmlns="http://www.w3.org/2000/svg">
<circle cx="30" cy="30" r="30" fill="#327CC6"/>
<g clip-path="url(#clip0_187_11)">
<path d="M30.3 47C39.5784 47 47.1 39.4784 47.1 30.2C47.1 20.9216 39.5784 13.4 30.3 13.4C21.0216 13.4 13.5 20.9216 13.5 30.2C13.5 39.4784 21.0216 47 30.3 47Z" stroke="white" stroke-width="3" stroke-miterlimit="10" stroke-linecap="round" stroke-linejoin="round"/>
<path d="M38.9 32.5C38.9 37.3 35 41.2 30.2 41.2C25.4 41.2 21.5 37.3 21.5 32.5" stroke="white" stroke-width="3" stroke-miterlimit="10" stroke-linecap="round" stroke-linejoin="round"/>
<path d="M27.3 23.3C27.3 24.9 26 26.3 24.3 26.3C22.6 26.3 21.3 25 21.3 23.3" stroke="white" stroke-width="3" stroke-miterlimit="10" stroke-linecap="round" stroke-linejoin="round"/>
<path d="M39.2001 23.3C39.2001 24.9 37.9001 26.3 36.2001 26.3C34.5001 26.3 33.2001 25 33.2001 23.3" stroke="white" stroke-width="3" stroke-miterlimit="10" stroke-linecap="round" stroke-linejoin="round"/>
</g>
<defs>
<clipPath id="clip0_187_11">
<rect width="36.5" height="36.5" fill="white" transform="translate(12 12)"/>
</clipPath>
</defs>
</svg>
