<svg width="60" height="60" viewBox="0 0 60 60" fill="none" xmlns="http://www.w3.org/2000/svg">
<path d="M60 30C60 46.5685 46.5685 60 30 60C13.4315 60 0 46.5685 0 30C0 13.4315 13.4315 0 30 0C46.5685 0 60 13.4315 60 30Z" fill="#327CC6"/>
<path d="M18.9 32.6C25.1 26.4 35.1 26.4 41.3 32.6" stroke="white" stroke-width="3" stroke-miterlimit="10" stroke-linecap="round" stroke-linejoin="round"/>
<path d="M24.4 38C27.6 34.8 32.7 34.8 35.8 38" stroke="white" stroke-width="3" stroke-miterlimit="10" stroke-linecap="round" stroke-linejoin="round"/>
<path d="M30.1 46.2001C30.7627 46.2001 31.3 45.6628 31.3 45C31.3 44.3373 30.7627 43.8 30.1 43.8C29.4373 43.8 28.9 44.3373 28.9 45C28.9 45.6628 29.4373 46.2001 30.1 46.2001Z" stroke="white" stroke-width="3" stroke-miterlimit="10" stroke-linecap="round" stroke-linejoin="round"/>
<path d="M34.7 13.5L25.5 22.7" stroke="white" stroke-width="3" stroke-miterlimit="10" stroke-linecap="round" stroke-linejoin="round"/>
<path d="M25.5 13.5L34.7 22.7" stroke="white" stroke-width="3" stroke-miterlimit="10" stroke-linecap="round" stroke-linejoin="round"/>
<path d="M40.1 22.5C42.5 23.6 44.7 25.2 46.7 27.1" stroke="white" stroke-width="3" stroke-miterlimit="10" stroke-linecap="round" stroke-linejoin="round"/>
<path d="M13.5 27.2C15.5 25.2 17.7 23.7 20.1 22.6" stroke="white" stroke-width="3" stroke-miterlimit="10" stroke-linecap="round" stroke-linejoin="round"/>
</svg>
